<svg width="122" height="36" viewBox="0 0 122 36" fill="none" xmlns="http://www.w3.org/2000/svg">
<path d="M57.7651 6.75427V7.85308H49.5085V29.1216H48.2235V7.85308H39.9731V6.75427H57.7651Z" fill="url(#paint0_linear_30_34)"/>
<path d="M81.6286 29.2333H80.2256L74.8495 21.5603C74.502 21.6104 74.1514 21.6353 73.8003 21.6348H65.73V29.1216H64.6312V20.5794H73.9431C75.5938 20.5277 77.1591 19.8337 78.3058 18.6453C79.4525 17.4568 80.0901 15.8677 80.0828 14.2162C80.0773 12.5849 79.4255 11.0223 78.2701 9.87067C77.1376 8.66412 75.5777 7.94883 73.9245 7.87791H64.327V6.75427H73.8003C75.5691 6.76688 77.2756 7.40842 78.6146 8.56411C79.9537 9.7198 80.8378 11.3142 81.1088 13.0621C81.3799 14.81 81.0201 16.5974 80.094 18.1043C79.1678 19.6112 77.7357 20.7395 76.0538 21.2871L81.6286 29.2333Z" fill="url(#paint1_linear_30_34)"/>
<path d="M91.046 6.75427H89.792V29.1588H91.046V6.75427Z" fill="url(#paint2_linear_30_34)"/>
<path d="M118.46 14.3776C118.46 16.3534 117.676 18.2482 116.278 19.6453C114.881 21.0423 112.987 21.8272 111.011 21.8272H103.152V29.2768H101.91V20.7594H111.123C112.785 20.7252 114.368 20.039 115.529 18.8487C116.69 17.6583 117.337 16.0593 117.331 14.3963C117.32 12.7659 116.669 11.205 115.518 10.0507C114.385 8.84589 112.825 8.13278 111.172 8.06415H101.544V6.9343H111.017C112.993 6.9343 114.888 7.71916 116.285 9.11622C117.682 10.5133 118.467 12.4081 118.467 14.3839" fill="url(#paint3_linear_30_34)"/>
<path d="M18.9716 33.8272C27.7144 33.8272 34.8019 26.7398 34.8019 17.9969C34.8019 9.25407 27.7144 2.1666 18.9716 2.1666C10.2287 2.1666 3.14124 9.25407 3.14124 17.9969C3.14124 26.7398 10.2287 33.8272 18.9716 33.8272Z" stroke="url(#paint4_linear_30_34)" stroke-width="3" stroke-miterlimit="10"/>
<defs>
<linearGradient id="paint0_linear_30_34" x1="48.8691" y1="6.75427" x2="48.8691" y2="29.1216" gradientUnits="userSpaceOnUse">
<stop stop-color="white"/>
<stop offset="0.1873" stop-color="white" stop-opacity="0.84047"/>
<stop offset="0.1874" stop-color="white" stop-opacity="0.832899"/>
<stop offset="0.1875" stop-color="white" stop-opacity="0.817708"/>
<stop offset="0.5625" stop-color="white" stop-opacity="0.84809"/>
<stop offset="0.885417" stop-color="white" stop-opacity="0.837963"/>
<stop offset="1" stop-color="white" stop-opacity="0"/>
</linearGradient>
<linearGradient id="paint1_linear_30_34" x1="72.9778" y1="6.75427" x2="72.9778" y2="29.2333" gradientUnits="userSpaceOnUse">
<stop stop-color="white"/>
<stop offset="0.1873" stop-color="white" stop-opacity="0.84047"/>
<stop offset="0.1874" stop-color="white" stop-opacity="0.832899"/>
<stop offset="0.1875" stop-color="white" stop-opacity="0.817708"/>
<stop offset="0.5625" stop-color="white" stop-opacity="0.84809"/>
<stop offset="0.885417" stop-color="white" stop-opacity="0.837963"/>
<stop offset="1" stop-color="white" stop-opacity="0"/>
</linearGradient>
<linearGradient id="paint2_linear_30_34" x1="90.419" y1="6.75427" x2="90.419" y2="29.1588" gradientUnits="userSpaceOnUse">
<stop stop-color="white"/>
<stop offset="0.1873" stop-color="white" stop-opacity="0.84047"/>
<stop offset="0.1874" stop-color="white" stop-opacity="0.832899"/>
<stop offset="0.1875" stop-color="white" stop-opacity="0.817708"/>
<stop offset="0.5625" stop-color="white" stop-opacity="0.84809"/>
<stop offset="0.885417" stop-color="white" stop-opacity="0.837963"/>
<stop offset="1" stop-color="white" stop-opacity="0"/>
</linearGradient>
<linearGradient id="paint3_linear_30_34" x1="110.005" y1="6.9343" x2="110.005" y2="29.2768" gradientUnits="userSpaceOnUse">
<stop stop-color="white"/>
<stop offset="0.1873" stop-color="white" stop-opacity="0.84047"/>
<stop offset="0.1874" stop-color="white" stop-opacity="0.832899"/>
<stop offset="0.1875" stop-color="white" stop-opacity="0.817708"/>
<stop offset="0.5625" stop-color="white" stop-opacity="0.84809"/>
<stop offset="0.885417" stop-color="white" stop-opacity="0.837963"/>
<stop offset="1" stop-color="white" stop-opacity="0"/>
</linearGradient>
<linearGradient id="paint4_linear_30_34" x1="4.45112" y1="26.3777" x2="33.492" y2="9.61616" gradientUnits="userSpaceOnUse">
<stop stop-color="white"/>
<stop offset="0.0729167" stop-color="#FDFEFF"/>
<stop offset="0.49" stop-color="#C1C1C1"/>
<stop offset="1" stop-color="#C8C8C8"/>
</linearGradient>
</defs>
</svg>
